<?xml version="1.0" encoding="UTF-8" standalone="no"?>
<!DOCTYPE svg PUBLIC "-//W3C//DTD SVG 1.1//EN" "http://www.w3.org/Graphics/SVG/1.1/DTD/svg11.dtd">
<svg xmlns="http://www.w3.org/2000/svg" version="1.1" viewBox="0.00 0.00 398.00 323.00">
<g stroke-width="2.00" fill="none" stroke-linecap="butt">
<path stroke="#263b37" vector-effect="non-scaling-stroke" d="
  M 212.89 152.38
  Q 211.60 149.75 212.61 147.05
  A 1.09 1.08 30.2 0 0 212.29 145.85
  Q 210.22 144.12 207.83 145.59
  Q 207.42 145.84 207.13 145.46
  Q 206.58 144.77 206.51 143.82
  A 1.88 1.88 0.0 0 0 203.11 142.87
  Q 200.91 145.95 198.02 143.34
  A 0.61 0.61 0.0 0 0 197.09 143.48
  L 196.35 144.74
  A 0.42 0.42 0.0 0 1 195.58 144.61
  L 195.44 143.87
  Q 195.31 143.20 194.62 143.25
  Q 192.42 143.42 191.74 145.48
  A 0.51 0.51 0.0 0 1 191.00 145.76
  L 188.82 144.50
  A 1.26 1.22 -38.5 0 0 187.80 144.40
  C 185.25 145.29 186.53 147.96 187.24 149.51
  Q 187.81 150.74 186.47 150.60
  Q 181.30 150.05 181.01 155.23
  Q 180.98 155.85 181.42 156.29
  L 182.41 157.29
  Q 182.74 157.61 182.49 158.01
  Q 181.32 159.79 182.78 161.27
  C 183.28 161.79 183.99 161.83 184.43 162.73
  Q 184.58 163.04 184.83 162.79
  L 185.16 162.46
  Q 185.33 162.30 185.21 162.11
  L 183.81 159.87
  Q 183.62 159.55 183.93 159.35
  L 185.77 158.15
  Q 186.46 157.71 185.92 157.09
  Q 184.06 154.99 185.25 152.18
  A 0.81 0.80 -78.3 0 1 185.99 151.69
  Q 190.61 151.72 190.61 147.06
  A 0.47 0.47 0.0 0 1 191.33 146.67
  L 193.90 148.36
  A 0.51 0.51 0.0 0 0 194.68 148.03
  L 194.97 146.57
  Q 195.06 146.12 195.52 146.21
  Q 197.04 146.51 198.49 145.27
  Q 199.04 144.79 199.86 145.09
  Q 200.57 145.35 199.92 145.74
  L 199.23 146.15
  Q 198.96 146.31 199.01 146.62
  L 199.07 147.07
  Q 199.16 147.74 199.60 147.22
  Q 201.80 144.58 205.29 145.65
  Q 205.75 145.79 205.75 146.27
  L 205.75 148.02
  A 0.43 0.42 -30.9 0 0 206.55 148.22
  Q 207.10 147.20 208.28 146.97
  Q 209.01 146.84 208.78 147.54
  L 208.05 149.72
  Q 207.78 150.54 208.65 150.56
  L 210.37 150.61
  A 0.43 0.42 11.4 0 1 210.76 151.19
  L 209.97 153.12
  Q 209.83 153.47 210.18 153.58
  L 211.59 154.04
  Q 212.14 154.22 212.51 153.78
  Q 213.52 152.61 214.42 153.93
  Q 214.71 154.37 214.99 153.92
  L 215.43 153.19
  A 0.44 0.44 0.0 0 0 215.00 152.52
  L 213.50 152.71
  Q 213.08 152.77 212.89 152.38"
/>
<path stroke="#263b37" vector-effect="non-scaling-stroke" d="
  M 215.74 159.11
  L 216.76 158.92
  A 0.41 0.41 0.0 0 0 216.88 158.16
  L 211.83 155.39
  A 0.58 0.58 0.0 0 0 211.25 156.39
  L 214.34 158.24
  A 0.51 0.50 45.2 0 1 214.34 159.11
  Q 211.83 160.60 211.27 163.53
  Q 211.17 164.07 211.55 164.46
  Q 212.40 165.34 213.92 165.82
  Q 214.95 166.14 214.65 167.15
  Q 214.55 167.50 214.19 167.50
  L 211.90 167.50
  A 0.66 0.66 0.0 0 0 211.24 168.16
  L 211.24 170.05
  A 0.87 0.86 -8.0 0 1 210.61 170.88
  L 206.49 172.03
  Q 205.97 172.17 205.65 172.62
  C 204.56 174.21 205.56 174.86 205.33 176.08
  Q 205.24 176.51 204.91 176.69
  A 0.55 0.55 0.0 0 1 204.17 176.50
  C 202.32 173.59 198.87 172.30 196.52 175.70
  Q 196.23 176.12 196.46 176.57
  C 197.56 178.77 202.57 178.43 204.72 178.55
  Q 205.35 178.58 205.65 178.03
  L 206.51 176.42
  Q 206.74 176.00 207.22 176.00
  L 208.95 176.00
  A 0.61 0.61 0.0 0 0 209.55 175.29
  L 209.21 173.30
  Q 209.12 172.77 209.66 172.76
  Q 212.54 172.69 212.53 169.85
  A 0.90 0.89 -6.0 0 1 213.24 168.98
  L 217.21 168.19
  Q 217.94 168.04 217.41 167.52
  Q 216.83 166.94 215.98 166.78
  A 0.79 0.79 0.0 0 1 215.73 165.31
  L 217.88 164.09
  Q 218.42 163.78 218.20 163.19
  Q 217.44 161.13 215.58 159.83
  Q 214.81 159.28 215.74 159.11"
/>
<path stroke="#263b37" vector-effect="non-scaling-stroke" d="
  M 183.47 164.00
  Q 183.77 164.02 183.74 163.71
  Q 183.68 163.22 183.22 163.38
  Q 182.35 163.68 182.02 162.78
  Q 181.87 162.37 181.50 162.62
  Q 181.32 162.74 181.27 162.95
  Q 181.21 163.17 181.40 163.53
  Q 182.07 164.78 182.66 166.10
  Q 182.85 166.53 182.79 167.00
  Q 182.33 170.75 185.91 171.60
  A 0.80 0.79 -80.0 0 1 186.52 172.48
  L 186.23 174.78
  A 0.98 0.96 -62.7 0 0 186.46 175.53
  Q 188.02 177.33 190.43 177.68
  A 0.56 0.54 27.7 0 0 190.88 177.55
  L 192.65 176.05
  A 0.62 0.62 0.0 0 1 193.50 176.10
  Q 195.04 177.78 195.54 180.00
  A 0.60 0.60 0.0 0 0 196.69 180.06
  C 196.88 179.51 196.81 178.90 196.47 178.36
  Q 195.38 176.62 194.38 174.77
  Q 194.15 174.35 193.69 174.47
  Q 191.34 175.05 190.99 172.46
  A 0.40 0.40 0.0 0 0 190.42 172.15
  L 188.47 173.09
  A 0.86 0.86 0.0 0 1 187.28 172.04
  C 189.04 166.75 184.38 167.73 183.24 164.30
  Q 183.13 163.98 183.47 164.00"
/>
<path stroke="#263b37" vector-effect="non-scaling-stroke" d="
  M 205.41 144.35
  A 0.92 0.92 0.0 0 0 204.64 142.71
  Q 203.37 143.08 202.77 144.24
  A 0.51 0.51 0.0 0 0 203.22 144.99
  Q 204.44 145.00 205.41 144.35"
/>
<path stroke="#263b37" vector-effect="non-scaling-stroke" d="
  M 192.45 146.61
  L 193.58 147.16
  Q 194.25 147.49 194.25 146.75
  L 194.25 145.15
  A 0.58 0.58 0.0 0 0 193.30 144.71
  L 192.32 145.55
  A 0.64 0.64 0.0 0 0 192.45 146.61"
/>
<path stroke="#263b37" vector-effect="non-scaling-stroke" d="
  M 189.40 145.68
  A 1.29 1.29 0.0 0 0 187.03 146.68
  L 187.99 149.78
  A 0.53 0.52 54.7 0 0 188.91 149.94
  Q 190.54 147.79 189.40 145.68"
/>
<path stroke="#263b37" vector-effect="non-scaling-stroke" d="
  M 211.8966 146.9845
  A 0.87 0.87 0.0 0 0 211.2982 145.9094
  L 210.8943 145.7943
  A 0.87 0.87 0.0 0 0 209.8192 146.3927
  L 209.1234 148.8355
  A 0.87 0.87 0.0 0 0 209.7218 149.9106
  L 210.1257 150.0257
  A 0.87 0.87 0.0 0 0 211.2008 149.4273
  L 211.8966 146.9845"
/>
<path stroke="#263b37" vector-effect="non-scaling-stroke" d="
  M 211.0628 153.1634
  A 0.95 0.71 117.4 0 0 212.1303 152.6467
  A 0.95 0.71 117.4 0 0 211.9372 151.4766
  A 0.95 0.71 117.4 0 0 210.8697 151.9933
  A 0.95 0.71 117.4 0 0 211.0628 153.1634"
/>
<path stroke="#263b37" vector-effect="non-scaling-stroke" d="
  M 183.68 154.12
  L 184.50 152.82
  A 0.78 0.78 0.0 0 0 183.28 151.85
  Q 181.99 153.15 181.99 154.99
  Q 181.99 155.62 182.43 156.06
  L 183.94 157.56
  Q 184.25 157.88 184.56 157.56
  L 184.84 157.28
  A 0.37 0.36 50.1 0 0 184.88 156.80
  L 183.71 155.14
  A 0.91 0.91 0.0 0 1 183.68 154.12"
/>
<path stroke="#263b37" vector-effect="non-scaling-stroke" d="
  M 217.14 162.44
  L 215.32 160.40
  A 0.84 0.84 0.0 0 0 214.13 160.33
  L 214.02 160.44
  A 3.72 2.02 -41.7 0 0 212.58 164.42
  L 212.83 164.70
  A 3.72 2.02 -41.7 0 0 216.96 163.74
  L 217.08 163.63
  A 0.84 0.84 0.0 0 0 217.14 162.44"
/>
<path stroke="#263b37" vector-effect="non-scaling-stroke" d="
  M 206.23 175.26
  L 208.33 175.14
  A 0.42 0.42 0.0 0 0 208.72 174.69
  L 208.71 174.48
  A 1.81 1.33 86.7 0 0 207.28 172.75
  L 207.00 172.77
  A 1.81 1.33 86.7 0 0 205.78 174.65
  L 205.79 174.86
  A 0.42 0.42 0.0 0 0 206.23 175.26"
/>
<path stroke="#263b37" vector-effect="non-scaling-stroke" d="
  M 198.69 174.34
  L 198.00 176.50
  A 0.26 0.26 0.0 0 0 198.17 176.82
  L 198.30 176.86
  A 5.20 1.30 17.7 0 0 203.65 177.21
  L 203.70 177.04
  A 5.20 1.30 17.7 0 0 199.15 174.22
  L 199.01 174.17
  A 0.26 0.26 0.0 0 0 198.69 174.34"
/>
<path stroke="#263b37" vector-effect="non-scaling-stroke" d="
  M 184.44 167.50
  Q 183.62 167.33 183.67 168.17
  Q 183.82 170.55 186.23 170.75
  A 0.52 0.51 2.0 0 0 186.79 170.23
  Q 186.78 167.98 184.44 167.50"
/>
<path stroke="#263b37" vector-effect="non-scaling-stroke" d="
  M 187.44 175.51
  Q 190.08 177.28 190.91 176.65
  A 2.02 1.62 -66.2 0 0 189.98 173.17
  L 187.68 173.88
  A 0.91 0.91 0.0 0 0 187.44 175.51"
/>
</g>
<path fill="#4a736b" d="
  M 136.75 18.22
  C 129.21 6.55 152.85 2.97 148.01 17.47
  A 0.98 0.93 -10.9 0 1 147.69 17.92
  Q 144.15 20.84 144.50 25.50
  A 0.85 0.85 0.0 0 0 145.41 26.29
  C 147.51 26.13 149.87 26.49 151.26 26.49
  Q 236.63 26.51 322.00 26.49
  C 328.64 26.49 330.49 31.52 330.49 37.55
  Q 330.51 162.15 330.50 286.75
  C 330.50 293.80 325.16 295.30 318.90 295.37
  Q 291.94 295.68 264.98 295.16
  C 263.34 295.13 261.50 295.66 259.62 295.48
  Q 259.08 295.43 258.95 295.95
  Q 258.05 299.61 260.05 302.12
  C 269.83 314.40 247.92 318.87 249.29 306.40
  C 249.56 303.96 251.11 302.63 252.81 301.08
  A 1.16 1.10 -19.5 0 0 253.18 300.35
  L 253.53 296.26
  A 0.52 0.51 7.7 0 0 253.10 295.70
  Q 250.72 295.31 249.19 295.32
  Q 164.84 295.65 80.50 295.49
  C 71.48 295.47 67.05 293.81 67.07 283.90
  Q 67.40 165.53 67.21 47.16
  C 67.19 36.95 63.94 26.52 78.76 26.51
  C 98.62 26.49 118.68 25.94 138.50 26.25
  A 0.69 0.68 4.2 0 0 139.19 25.66
  C 139.64 22.05 138.56 21.02 136.75 18.22
  Z
  M 275.73 156.99
  C 263.27 141.41 247.47 127.02 229.32 117.87
  C 200.14 103.16 173.88 110.80 149.43 129.93
  Q 147.84 131.18 146.96 132.18
  A 1.24 1.21 65.6 0 0 146.64 133.06
  C 146.81 138.34 141.98 142.68 137.17 140.20
  C 130.62 136.82 133.10 126.94 140.35 127.58
  C 142.86 127.80 143.92 127.67 145.71 126.22
  C 167.36 108.62 193.69 99.16 220.93 108.32
  C 243.51 115.92 265.01 134.47 279.41 153.21
  Q 279.72 153.61 280.22 153.73
  C 282.15 154.20 284.08 154.17 285.64 155.26
  C 290.84 158.91 288.64 163.58 284.92 167.21
  Q 284.50 167.61 284.50 168.19
  L 284.50 180.05
  Q 284.50 180.62 284.99 180.89
  C 292.39 185.07 287.97 194.23 279.89 193.44
  Q 279.39 193.39 279.04 193.75
  L 262.71 210.50
  Q 262.34 210.88 262.43 211.41
  Q 263.30 216.36 259.48 219.35
  Q 259.07 219.67 259.01 220.18
  Q 258.78 222.04 258.77 225.25
  Q 258.68 258.03 258.82 290.50
  A 1.00 0.99 -0.0 0 0 259.82 291.49
  Q 289.24 291.51 318.88 291.49
  C 324.18 291.49 326.75 290.43 326.75 284.75
  Q 326.75 160.93 326.75 37.12
  C 326.75 33.18 325.53 30.25 321.25 30.25
  Q 233.01 30.25 145.34 30.25
  Q 144.30 30.25 144.31 31.30
  L 144.52 62.01
  Q 144.52 62.50 145.01 62.50
  L 208.01 62.50
  A 0.79 0.79 0.0 0 0 208.74 62.01
  C 213.96 49.06 231.33 58.35 225.03 69.47
  C 221.69 75.38 212.43 75.47 209.34 69.05
  A 2.31 2.31 0.0 0 0 207.26 67.74
  L 145.01 67.77
  A 0.52 0.52 0.0 0 0 144.49 68.29
  Q 144.52 83.52 144.48 98.59
  C 144.48 99.76 143.67 101.26 145.16 102.31
  C 151.01 106.40 149.34 115.10 141.75 114.82
  C 137.44 114.66 129.67 124.97 123.31 130.93
  C 120.79 133.28 124.19 137.45 119.00 140.81
  Q 118.50 141.13 118.50 141.72
  L 118.50 154.24
  A 0.92 0.92 0.0 0 0 118.93 155.02
  Q 123.74 157.99 122.06 163.53
  Q 121.91 164.05 122.24 164.48
  Q 141.87 190.05 168.15 203.83
  C 196.71 218.81 226.68 210.53 250.47 190.21
  C 251.75 189.12 251.02 187.03 251.55 185.61
  C 255.29 175.56 269.50 183.28 263.30 191.51
  Q 260.58 195.12 255.40 193.80
  Q 254.89 193.66 254.47 193.98
  C 232.45 210.81 208.06 223.00 179.45 214.06
  C 157.01 207.04 136.50 190.27 121.38 172.35
  Q 120.56 171.38 119.84 170.76
  A 0.67 0.66 20.4 0 0 118.74 171.26
  Q 118.80 202.93 118.74 233.20
  C 118.73 235.24 119.57 235.39 120.94 236.53
  C 129.99 244.10 113.38 256.23 109.71 243.44
  C 108.46 239.07 110.77 237.75 113.12 235.22
  Q 113.50 234.82 113.50 234.26
  L 113.50 167.77
  A 0.80 0.80 0.0 0 0 113.18 167.13
  C 108.49 163.70 107.49 158.31 112.79 154.84
  A 1.02 1.00 -16.9 0 0 113.25 154.00
  L 113.25 141.73
  Q 113.25 141.08 112.71 140.72
  C 106.07 136.26 109.75 127.37 117.33 128.29
  Q 117.83 128.36 118.25 128.07
  C 123.76 124.24 128.94 117.72 133.74 112.87
  C 135.69 110.91 135.94 109.05 135.70 106.45
  Q 135.65 105.91 136.00 105.49
  L 139.00 101.90
  A 1.03 1.02 -24.9 0 0 139.25 101.23
  L 139.25 68.72
  A 0.78 0.78 0.0 0 0 138.47 67.94
  L 102.07 67.68
  A 1.21 1.19 -79.7 0 0 100.93 68.48
  C 98.41 75.72 88.21 74.31 87.47 66.87
  C 86.96 61.70 91.03 58.19 96.19 59.23
  C 97.91 59.57 99.03 60.91 100.24 62.10
  Q 100.64 62.50 101.20 62.50
  L 138.25 62.50
  A 1.00 1.00 0.0 0 0 139.25 61.50
  L 139.25 31.50
  A 1.23 1.23 0.0 0 0 138.02 30.27
  Q 107.50 30.25 77.00 30.16
  Q 70.76 30.15 70.76 36.00
  Q 70.73 161.22 70.78 286.44
  C 70.78 290.18 74.14 291.49 77.58 291.49
  Q 165.08 291.51 252.28 291.50
  A 0.97 0.97 0.0 0 0 253.25 290.53
  L 253.25 220.51
  Q 253.25 220.05 252.91 219.74
  C 248.68 215.97 247.20 210.46 253.03 207.33
  C 254.65 206.47 256.53 206.72 258.36 206.76
  Q 258.82 206.77 259.14 206.44
  L 275.31 189.97
  Q 275.67 189.61 275.58 189.11
  Q 274.67 184.05 278.51 180.87
  A 1.23 1.23 0.0 0 0 278.96 179.92
  L 279.08 167.73
  A 0.88 0.85 19.5 0 0 278.73 167.02
  Q 274.16 163.62 275.91 157.97
  Q 276.08 157.43 275.73 156.99
  Z"
/>
<circle fill="#4a736b" cx="273.13" cy="92.30" r="9.04"/>
<circle fill="#4a736b" cx="299.23" cy="118.34" r="6.78"/>
<path fill="#4a736b" d="
  M 243.43 142.90
  C 248.89 145.82 251.35 149.75 246.85 155.20
  Q 246.53 155.59 246.52 156.10
  C 246.44 159.85 246.69 163.93 246.23 167.35
  C 239.72 215.32 176.86 224.53 155.83 181.30
  Q 155.60 180.82 155.09 180.67
  C 148.94 178.87 146.70 173.65 151.45 168.59
  A 1.10 1.09 63.5 0 0 151.74 167.71
  Q 150.03 152.32 156.47 139.22
  C 174.75 102.07 226.84 104.08 242.80 142.21
  Q 242.99 142.67 243.43 142.90
  Z
  M 240.57 156.50
  Q 234.33 153.88 235.94 146.86
  Q 236.06 146.34 236.52 146.08
  C 237.92 145.27 238.02 144.22 237.32 142.77
  C 225.34 117.83 194.29 108.97 172.43 127.18
  C 161.83 136.00 154.40 151.99 157.07 166.56
  A 0.96 0.94 9.5 0 0 157.56 167.23
  Q 164.69 171.01 160.70 178.43
  Q 160.52 178.77 160.68 179.11
  C 173.36 206.49 208.74 212.77 229.50 190.65
  Q 242.05 177.28 241.14 157.31
  Q 241.12 156.73 240.57 156.50
  Z"
/>
<path fill="#4a736b" d="
  M 163.14 142.16
  C 178.81 114.10 217.24 111.99 233.93 140.45
  Q 234.13 140.79 233.84 141.05
  Q 233.60 141.27 233.31 141.26
  Q 233.09 141.26 232.87 141.00
  C 224.42 131.34 216.95 125.17 204.04 123.66
  C 187.53 121.72 172.31 129.21 163.72 143.70
  A 0.39 0.39 0.0 0 1 163.00 143.50
  L 163.00 142.70
  A 1.12 1.09 60.2 0 1 163.14 142.16
  Z"
/>
<path fill="#4a736b" d="
  M 221.73 160.87
  A 22.71 22.71 0.0 0 1 199.02 183.58
  A 22.71 22.71 0.0 0 1 176.31 160.87
  A 22.71 22.71 0.0 0 1 199.02 138.16
  A 22.71 22.71 0.0 0 1 221.73 160.87
  Z
  M 212.89 152.38
  Q 211.60 149.75 212.61 147.05
  A 1.09 1.08 30.2 0 0 212.29 145.85
  Q 210.22 144.12 207.83 145.59
  Q 207.42 145.84 207.13 145.46
  Q 206.58 144.77 206.51 143.82
  A 1.88 1.88 0.0 0 0 203.11 142.87
  Q 200.91 145.95 198.02 143.34
  A 0.61 0.61 0.0 0 0 197.09 143.48
  L 196.35 144.74
  A 0.42 0.42 0.0 0 1 195.58 144.61
  L 195.44 143.87
  Q 195.31 143.20 194.62 143.25
  Q 192.42 143.42 191.74 145.48
  A 0.51 0.51 0.0 0 1 191.00 145.76
  L 188.82 144.50
  A 1.26 1.22 -38.5 0 0 187.80 144.40
  C 185.25 145.29 186.53 147.96 187.24 149.51
  Q 187.81 150.74 186.47 150.60
  Q 181.30 150.05 181.01 155.23
  Q 180.98 155.85 181.42 156.29
  L 182.41 157.29
  Q 182.74 157.61 182.49 158.01
  Q 181.32 159.79 182.78 161.27
  C 183.28 161.79 183.99 161.83 184.43 162.73
  Q 184.58 163.04 184.83 162.79
  L 185.16 162.46
  Q 185.33 162.30 185.21 162.11
  L 183.81 159.87
  Q 183.62 159.55 183.93 159.35
  L 185.77 158.15
  Q 186.46 157.71 185.92 157.09
  Q 184.06 154.99 185.25 152.18
  A 0.81 0.80 -78.3 0 1 185.99 151.69
  Q 190.61 151.72 190.61 147.06
  A 0.47 0.47 0.0 0 1 191.33 146.67
  L 193.90 148.36
  A 0.51 0.51 0.0 0 0 194.68 148.03
  L 194.97 146.57
  Q 195.06 146.12 195.52 146.21
  Q 197.04 146.51 198.49 145.27
  Q 199.04 144.79 199.86 145.09
  Q 200.57 145.35 199.92 145.74
  L 199.23 146.15
  Q 198.96 146.31 199.01 146.62
  L 199.07 147.07
  Q 199.16 147.74 199.60 147.22
  Q 201.80 144.58 205.29 145.65
  Q 205.75 145.79 205.75 146.27
  L 205.75 148.02
  A 0.43 0.42 -30.9 0 0 206.55 148.22
  Q 207.10 147.20 208.28 146.97
  Q 209.01 146.84 208.78 147.54
  L 208.05 149.72
  Q 207.78 150.54 208.65 150.56
  L 210.37 150.61
  A 0.43 0.42 11.4 0 1 210.76 151.19
  L 209.97 153.12
  Q 209.83 153.47 210.18 153.58
  L 211.59 154.04
  Q 212.14 154.22 212.51 153.78
  Q 213.52 152.61 214.42 153.93
  Q 214.71 154.37 214.99 153.92
  L 215.43 153.19
  A 0.44 0.44 0.0 0 0 215.00 152.52
  L 213.50 152.71
  Q 213.08 152.77 212.89 152.38
  Z
  M 207.83 160.86
  A 8.86 8.86 0.0 0 0 198.97 152.00
  A 8.86 8.86 0.0 0 0 190.11 160.86
  A 8.86 8.86 0.0 0 0 198.97 169.72
  A 8.86 8.86 0.0 0 0 207.83 160.86
  Z
  M 215.74 159.11
  L 216.76 158.92
  A 0.41 0.41 0.0 0 0 216.88 158.16
  L 211.83 155.39
  A 0.58 0.58 0.0 0 0 211.25 156.39
  L 214.34 158.24
  A 0.51 0.50 45.2 0 1 214.34 159.11
  Q 211.83 160.60 211.27 163.53
  Q 211.17 164.07 211.55 164.46
  Q 212.40 165.34 213.92 165.82
  Q 214.95 166.14 214.65 167.15
  Q 214.55 167.50 214.19 167.50
  L 211.90 167.50
  A 0.66 0.66 0.0 0 0 211.24 168.16
  L 211.24 170.05
  A 0.87 0.86 -8.0 0 1 210.61 170.88
  L 206.49 172.03
  Q 205.97 172.17 205.65 172.62
  C 204.56 174.21 205.56 174.86 205.33 176.08
  Q 205.24 176.51 204.91 176.69
  A 0.55 0.55 0.0 0 1 204.17 176.50
  C 202.32 173.59 198.87 172.30 196.52 175.70
  Q 196.23 176.12 196.46 176.57
  C 197.56 178.77 202.57 178.43 204.72 178.55
  Q 205.35 178.58 205.65 178.03
  L 206.51 176.42
  Q 206.74 176.00 207.22 176.00
  L 208.95 176.00
  A 0.61 0.61 0.0 0 0 209.55 175.29
  L 209.21 173.30
  Q 209.12 172.77 209.66 172.76
  Q 212.54 172.69 212.53 169.85
  A 0.90 0.89 -6.0 0 1 213.24 168.98
  L 217.21 168.19
  Q 217.94 168.04 217.41 167.52
  Q 216.83 166.94 215.98 166.78
  A 0.79 0.79 0.0 0 1 215.73 165.31
  L 217.88 164.09
  Q 218.42 163.78 218.20 163.19
  Q 217.44 161.13 215.58 159.83
  Q 214.81 159.28 215.74 159.11
  Z
  M 183.47 164.00
  Q 183.77 164.02 183.74 163.71
  Q 183.68 163.22 183.22 163.38
  Q 182.35 163.68 182.02 162.78
  Q 181.87 162.37 181.50 162.62
  Q 181.32 162.74 181.27 162.95
  Q 181.21 163.17 181.40 163.53
  Q 182.07 164.78 182.66 166.10
  Q 182.85 166.53 182.79 167.00
  Q 182.33 170.75 185.91 171.60
  A 0.80 0.79 -80.0 0 1 186.52 172.48
  L 186.23 174.78
  A 0.98 0.96 -62.7 0 0 186.46 175.53
  Q 188.02 177.33 190.43 177.68
  A 0.56 0.54 27.7 0 0 190.88 177.55
  L 192.65 176.05
  A 0.62 0.62 0.0 0 1 193.50 176.10
  Q 195.04 177.78 195.54 180.00
  A 0.60 0.60 0.0 0 0 196.69 180.06
  C 196.88 179.51 196.81 178.90 196.47 178.36
  Q 195.38 176.62 194.38 174.77
  Q 194.15 174.35 193.69 174.47
  Q 191.34 175.05 190.99 172.46
  A 0.40 0.40 0.0 0 0 190.42 172.15
  L 188.47 173.09
  A 0.86 0.86 0.0 0 1 187.28 172.04
  C 189.04 166.75 184.38 167.73 183.24 164.30
  Q 183.13 163.98 183.47 164.00
  Z"
/>
<circle fill="#4a736b" cx="128.63" cy="145.12" r="3.74"/>
<path fill="#020202" d="
  M 213.50 152.71
  L 215.00 152.52
  A 0.44 0.44 0.0 0 1 215.43 153.19
  L 214.99 153.92
  Q 214.71 154.37 214.42 153.93
  Q 213.52 152.61 212.51 153.78
  Q 212.14 154.22 211.59 154.04
  L 210.18 153.58
  Q 209.83 153.47 209.97 153.12
  L 210.76 151.19
  A 0.43 0.42 11.4 0 0 210.37 150.61
  L 208.65 150.56
  Q 207.78 150.54 208.05 149.72
  L 208.78 147.54
  Q 209.01 146.84 208.28 146.97
  Q 207.10 147.20 206.55 148.22
  A 0.43 0.42 -30.9 0 1 205.75 148.02
  L 205.75 146.27
  Q 205.75 145.79 205.29 145.65
  Q 201.80 144.58 199.60 147.22
  Q 199.16 147.74 199.07 147.07
  L 199.01 146.62
  Q 198.96 146.31 199.23 146.15
  L 199.92 145.74
  Q 200.57 145.35 199.86 145.09
  Q 199.04 144.79 198.49 145.27
  Q 197.04 146.51 195.52 146.21
  Q 195.06 146.12 194.97 146.57
  L 194.68 148.03
  A 0.51 0.51 0.0 0 1 193.90 148.36
  L 191.33 146.67
  A 0.47 0.47 0.0 0 0 190.61 147.06
  Q 190.61 151.72 185.99 151.69
  A 0.81 0.80 -78.3 0 0 185.25 152.18
  Q 184.06 154.99 185.92 157.09
  Q 186.46 157.71 185.77 158.15
  L 183.93 159.35
  Q 183.62 159.55 183.81 159.87
  L 185.21 162.11
  Q 185.33 162.30 185.16 162.46
  L 184.83 162.79
  Q 184.58 163.04 184.43 162.73
  C 183.99 161.83 183.28 161.79 182.78 161.27
  Q 181.32 159.79 182.49 158.01
  Q 182.74 157.61 182.41 157.29
  L 181.42 156.29
  Q 180.98 155.85 181.01 155.23
  Q 181.30 150.05 186.47 150.60
  Q 187.81 150.74 187.24 149.51
  C 186.53 147.96 185.25 145.29 187.80 144.40
  A 1.26 1.22 -38.5 0 1 188.82 144.50
  L 191.00 145.76
  A 0.51 0.51 0.0 0 0 191.74 145.48
  Q 192.42 143.42 194.62 143.25
  Q 195.31 143.20 195.44 143.87
  L 195.58 144.61
  A 0.42 0.42 0.0 0 0 196.35 144.74
  L 197.09 143.48
  A 0.61 0.61 0.0 0 1 198.02 143.34
  Q 200.91 145.95 203.11 142.87
  A 1.88 1.88 0.0 0 1 206.51 143.82
  Q 206.58 144.77 207.13 145.46
  Q 207.42 145.84 207.83 145.59
  Q 210.22 144.12 212.29 145.85
  A 1.09 1.08 30.2 0 1 212.61 147.05
  Q 211.60 149.75 212.89 152.38
  Q 213.08 152.77 213.50 152.71
  Z
  M 205.41 144.35
  A 0.92 0.92 0.0 0 0 204.64 142.71
  Q 203.37 143.08 202.77 144.24
  A 0.51 0.51 0.0 0 0 203.22 144.99
  Q 204.44 145.00 205.41 144.35
  Z
  M 192.45 146.61
  L 193.58 147.16
  Q 194.25 147.49 194.25 146.75
  L 194.25 145.15
  A 0.58 0.58 0.0 0 0 193.30 144.71
  L 192.32 145.55
  A 0.64 0.64 0.0 0 0 192.45 146.61
  Z
  M 189.40 145.68
  A 1.29 1.29 0.0 0 0 187.03 146.68
  L 187.99 149.78
  A 0.53 0.52 54.7 0 0 188.91 149.94
  Q 190.54 147.79 189.40 145.68
  Z
  M 211.8966 146.9845
  A 0.87 0.87 0.0 0 0 211.2982 145.9094
  L 210.8943 145.7943
  A 0.87 0.87 0.0 0 0 209.8192 146.3927
  L 209.1234 148.8355
  A 0.87 0.87 0.0 0 0 209.7218 149.9106
  L 210.1257 150.0257
  A 0.87 0.87 0.0 0 0 211.2008 149.4273
  L 211.8966 146.9845
  Z
  M 211.0628 153.1634
  A 0.95 0.71 117.4 0 0 212.1303 152.6467
  A 0.95 0.71 117.4 0 0 211.9372 151.4766
  A 0.95 0.71 117.4 0 0 210.8697 151.9933
  A 0.95 0.71 117.4 0 0 211.0628 153.1634
  Z
  M 183.68 154.12
  L 184.50 152.82
  A 0.78 0.78 0.0 0 0 183.28 151.85
  Q 181.99 153.15 181.99 154.99
  Q 181.99 155.62 182.43 156.06
  L 183.94 157.56
  Q 184.25 157.88 184.56 157.56
  L 184.84 157.28
  A 0.37 0.36 50.1 0 0 184.88 156.80
  L 183.71 155.14
  A 0.91 0.91 0.0 0 1 183.68 154.12
  Z"
/>
<path fill="#4a736b" d="
  M 205.41 144.35
  Q 204.44 145.00 203.22 144.99
  A 0.51 0.51 0.0 0 1 202.77 144.24
  Q 203.37 143.08 204.64 142.71
  A 0.92 0.92 0.0 0 1 205.41 144.35
  Z"
/>
<path fill="#4a736b" d="
  M 192.45 146.61
  A 0.64 0.64 0.0 0 1 192.32 145.55
  L 193.30 144.71
  A 0.58 0.58 0.0 0 1 194.25 145.15
  L 194.25 146.75
  Q 194.25 147.49 193.58 147.16
  L 192.45 146.61
  Z"
/>
<path fill="#4a736b" d="
  M 189.40 145.68
  Q 190.54 147.79 188.91 149.94
  A 0.53 0.52 54.7 0 1 187.99 149.78
  L 187.03 146.68
  A 1.29 1.29 0.0 0 1 189.40 145.68
  Z"
/>
<rect fill="#4a736b" x="-1.08" y="-2.14" transform="translate(210.51,147.91) rotate(15.9)" width="2.16" height="4.28" rx="0.87"/>
<ellipse fill="#4a736b" cx="0.00" cy="0.00" transform="translate(211.50,152.32) rotate(117.4)" rx="0.95" ry="0.71"/>
<path fill="#4a736b" d="
  M 183.71 155.14
  L 184.88 156.80
  A 0.37 0.36 50.1 0 1 184.84 157.28
  L 184.56 157.56
  Q 184.25 157.88 183.94 157.56
  L 182.43 156.06
  Q 181.99 155.62 181.99 154.99
  Q 181.99 153.15 183.28 151.85
  A 0.78 0.78 0.0 0 1 184.50 152.82
  L 183.68 154.12
  A 0.91 0.91 0.0 0 0 183.71 155.14
  Z"
/>
<path fill="#020202" d="
  M 215.58 159.83
  Q 217.44 161.13 218.20 163.19
  Q 218.42 163.78 217.88 164.09
  L 215.73 165.31
  A 0.79 0.79 0.0 0 0 215.98 166.78
  Q 216.83 166.94 217.41 167.52
  Q 217.94 168.04 217.21 168.19
  L 213.24 168.98
  A 0.90 0.89 -6.0 0 0 212.53 169.85
  Q 212.54 172.69 209.66 172.76
  Q 209.12 172.77 209.21 173.30
  L 209.55 175.29
  A 0.61 0.61 0.0 0 1 208.95 176.00
  L 207.22 176.00
  Q 206.74 176.00 206.51 176.42
  L 205.65 178.03
  Q 205.35 178.58 204.72 178.55
  C 202.57 178.43 197.56 178.77 196.46 176.57
  Q 196.23 176.12 196.52 175.70
  C 198.87 172.30 202.32 173.59 204.17 176.50
  A 0.55 0.55 0.0 0 0 204.91 176.69
  Q 205.24 176.51 205.33 176.08
  C 205.56 174.86 204.56 174.21 205.65 172.62
  Q 205.97 172.17 206.49 172.03
  L 210.61 170.88
  A 0.87 0.86 -8.0 0 0 211.24 170.05
  L 211.24 168.16
  A 0.66 0.66 0.0 0 1 211.90 167.50
  L 214.19 167.50
  Q 214.55 167.50 214.65 167.15
  Q 214.95 166.14 213.92 165.82
  Q 212.40 165.34 211.55 164.46
  Q 211.17 164.07 211.27 163.53
  Q 211.83 160.60 214.34 159.11
  A 0.51 0.50 45.2 0 0 214.34 158.24
  L 211.25 156.39
  A 0.58 0.58 0.0 0 1 211.83 155.39
  L 216.88 158.16
  A 0.41 0.41 0.0 0 1 216.76 158.92
  L 215.74 159.11
  Q 214.81 159.28 215.58 159.83
  Z
  M 217.14 162.44
  L 215.32 160.40
  A 0.84 0.84 0.0 0 0 214.13 160.33
  L 214.02 160.44
  A 3.72 2.02 -41.7 0 0 212.58 164.42
  L 212.83 164.70
  A 3.72 2.02 -41.7 0 0 216.96 163.74
  L 217.08 163.63
  A 0.84 0.84 0.0 0 0 217.14 162.44
  Z
  M 206.23 175.26
  L 208.33 175.14
  A 0.42 0.42 0.0 0 0 208.72 174.69
  L 208.71 174.48
  A 1.81 1.33 86.7 0 0 207.28 172.75
  L 207.00 172.77
  A 1.81 1.33 86.7 0 0 205.78 174.65
  L 205.79 174.86
  A 0.42 0.42 0.0 0 0 206.23 175.26
  Z
  M 198.69 174.34
  L 198.00 176.50
  A 0.26 0.26 0.0 0 0 198.17 176.82
  L 198.30 176.86
  A 5.20 1.30 17.7 0 0 203.65 177.21
  L 203.70 177.04
  A 5.20 1.30 17.7 0 0 199.15 174.22
  L 199.01 174.17
  A 0.26 0.26 0.0 0 0 198.69 174.34
  Z"
/>
<path fill="#4a736b" d="
  M 217.14 162.44
  A 0.84 0.84 0.0 0 1 217.08 163.63
  L 216.96 163.74
  A 3.72 2.02 -41.7 0 1 212.83 164.70
  L 212.58 164.42
  A 3.72 2.02 -41.7 0 1 214.02 160.44
  L 214.13 160.33
  A 0.84 0.84 0.0 0 1 215.32 160.40
  L 217.14 162.44
  Z"
/>
<path fill="#020202" d="
  M 183.24 164.30
  C 184.38 167.73 189.04 166.75 187.28 172.04
  A 0.86 0.86 0.0 0 0 188.47 173.09
  L 190.42 172.15
  A 0.40 0.40 0.0 0 1 190.99 172.46
  Q 191.34 175.05 193.69 174.47
  Q 194.15 174.35 194.38 174.77
  Q 195.38 176.62 196.47 178.36
  C 196.81 178.90 196.88 179.51 196.69 180.06
  A 0.60 0.60 0.0 0 1 195.54 180.00
  Q 195.04 177.78 193.50 176.10
  A 0.62 0.62 0.0 0 0 192.65 176.05
  L 190.88 177.55
  A 0.56 0.54 27.7 0 1 190.43 177.68
  Q 188.02 177.33 186.46 175.53
  A 0.98 0.96 -62.7 0 1 186.23 174.78
  L 186.52 172.48
  A 0.80 0.79 -80.0 0 0 185.91 171.60
  Q 182.33 170.75 182.79 167.00
  Q 182.85 166.53 182.66 166.10
  Q 182.07 164.78 181.40 163.53
  Q 181.21 163.17 181.27 162.95
  Q 181.32 162.74 181.50 162.62
  Q 181.87 162.37 182.02 162.78
  Q 182.35 163.68 183.22 163.38
  Q 183.68 163.22 183.74 163.71
  Q 183.77 164.02 183.47 164.00
  Q 183.13 163.98 183.24 164.30
  Z
  M 184.44 167.50
  Q 183.62 167.33 183.67 168.17
  Q 183.82 170.55 186.23 170.75
  A 0.52 0.51 2.0 0 0 186.79 170.23
  Q 186.78 167.98 184.44 167.50
  Z
  M 187.44 175.51
  Q 190.08 177.28 190.91 176.65
  A 2.02 1.62 -66.2 0 0 189.98 173.17
  L 187.68 173.88
  A 0.91 0.91 0.0 0 0 187.44 175.51
  Z"
/>
<path fill="#4a736b" d="
  M 184.44 167.50
  Q 186.78 167.98 186.79 170.23
  A 0.52 0.51 2.0 0 1 186.23 170.75
  Q 183.82 170.55 183.67 168.17
  Q 183.62 167.33 184.44 167.50
  Z"
/>
<path fill="#4a736b" d="
  M 206.23 175.26
  A 0.42 0.42 0.0 0 1 205.79 174.86
  L 205.78 174.65
  A 1.81 1.33 86.7 0 1 207.00 172.77
  L 207.28 172.75
  A 1.81 1.33 86.7 0 1 208.71 174.48
  L 208.72 174.69
  A 0.42 0.42 0.0 0 1 208.33 175.14
  L 206.23 175.26
  Z"
/>
<circle fill="#4a736b" cx="269.40" cy="176.74" r="3.80"/>
<path fill="#4a736b" d="
  M 187.44 175.51
  A 0.91 0.91 0.0 0 1 187.68 173.88
  L 189.98 173.17
  A 2.02 1.62 -66.2 0 1 190.91 176.65
  Q 190.08 177.28 187.44 175.51
  Z"
/>
<path fill="#4a736b" d="
  M 198.69 174.34
  A 0.26 0.26 0.0 0 1 199.01 174.17
  L 199.15 174.22
  A 5.20 1.30 17.7 0 1 203.70 177.04
  L 203.65 177.21
  A 5.20 1.30 17.7 0 1 198.30 176.86
  L 198.17 176.82
  A 0.26 0.26 0.0 0 1 198.00 176.50
  L 198.69 174.34
  Z"
/>
<circle fill="#4a736b" cx="142.54" cy="243.98" r="9.04"/>
<circle fill="#4a736b" cx="142.58" cy="269.91" r="6.77"/>
</svg>
